<mxfile host="Electron" modified="2024-05-29T04:01:17.812Z" agent="Mozilla/5.0 (Windows NT 10.0; Win64; x64) AppleWebKit/537.36 (KHTML, like Gecko) draw.io/24.4.0 Chrome/120.0.6099.109 Electron/28.1.0 Safari/537.36" etag="HrhsXulsQLIzXXJpD5Eh" version="24.4.0" type="device">
  <diagram id="C5RBs43oDa-KdzZeNtuy" name="Page-1">
    <mxGraphModel dx="744" dy="1013" grid="1" gridSize="10" guides="1" tooltips="1" connect="1" arrows="1" fold="1" page="1" pageScale="1" pageWidth="827" pageHeight="1169" math="0" shadow="0">
      <root>
        <mxCell id="WIyWlLk6GJQsqaUBKTNV-0" />
        <mxCell id="WIyWlLk6GJQsqaUBKTNV-1" parent="WIyWlLk6GJQsqaUBKTNV-0" />
        <mxCell id="pcavZEgPWF_feyRpH8n6-0" value="" style="ellipse;html=1;shape=startState;fillColor=#000000;strokeColor=#ff0000;" vertex="1" parent="WIyWlLk6GJQsqaUBKTNV-1">
          <mxGeometry x="330" y="210" width="30" height="30" as="geometry" />
        </mxCell>
        <mxCell id="pcavZEgPWF_feyRpH8n6-1" value="" style="edgeStyle=orthogonalEdgeStyle;html=1;verticalAlign=bottom;endArrow=open;endSize=8;strokeColor=#ff0000;rounded=0;entryX=0.5;entryY=0;entryDx=0;entryDy=0;" edge="1" source="pcavZEgPWF_feyRpH8n6-0" parent="WIyWlLk6GJQsqaUBKTNV-1" target="pcavZEgPWF_feyRpH8n6-8">
          <mxGeometry relative="1" as="geometry">
            <mxPoint x="345" y="300" as="targetPoint" />
          </mxGeometry>
        </mxCell>
        <mxCell id="pcavZEgPWF_feyRpH8n6-17" value="" style="edgeStyle=orthogonalEdgeStyle;rounded=0;orthogonalLoop=1;jettySize=auto;html=1;" edge="1" parent="WIyWlLk6GJQsqaUBKTNV-1" source="pcavZEgPWF_feyRpH8n6-5" target="pcavZEgPWF_feyRpH8n6-15">
          <mxGeometry relative="1" as="geometry" />
        </mxCell>
        <mxCell id="pcavZEgPWF_feyRpH8n6-5" value="i&amp;lt;9?" style="rhombus;whiteSpace=wrap;html=1;fontColor=#000000;fillColor=#ffffc0;strokeColor=#ff0000;" vertex="1" parent="WIyWlLk6GJQsqaUBKTNV-1">
          <mxGeometry x="267.5" y="400" width="155" height="40" as="geometry" />
        </mxCell>
        <mxCell id="pcavZEgPWF_feyRpH8n6-6" value="no" style="edgeStyle=orthogonalEdgeStyle;html=1;align=left;verticalAlign=bottom;endArrow=open;endSize=8;strokeColor=#ff0000;rounded=0;exitX=1;exitY=0.5;exitDx=0;exitDy=0;" edge="1" source="pcavZEgPWF_feyRpH8n6-5" parent="WIyWlLk6GJQsqaUBKTNV-1" target="pcavZEgPWF_feyRpH8n6-14">
          <mxGeometry x="-1" relative="1" as="geometry">
            <mxPoint x="480" y="420" as="targetPoint" />
          </mxGeometry>
        </mxCell>
        <mxCell id="pcavZEgPWF_feyRpH8n6-10" value="" style="edgeStyle=orthogonalEdgeStyle;rounded=0;orthogonalLoop=1;jettySize=auto;html=1;" edge="1" parent="WIyWlLk6GJQsqaUBKTNV-1" target="pcavZEgPWF_feyRpH8n6-8">
          <mxGeometry relative="1" as="geometry">
            <mxPoint x="344" y="340" as="sourcePoint" />
            <mxPoint x="344" y="380" as="targetPoint" />
          </mxGeometry>
        </mxCell>
        <mxCell id="pcavZEgPWF_feyRpH8n6-13" value="" style="edgeStyle=orthogonalEdgeStyle;rounded=0;orthogonalLoop=1;jettySize=auto;html=1;" edge="1" parent="WIyWlLk6GJQsqaUBKTNV-1" source="pcavZEgPWF_feyRpH8n6-8" target="pcavZEgPWF_feyRpH8n6-5">
          <mxGeometry relative="1" as="geometry" />
        </mxCell>
        <mxCell id="pcavZEgPWF_feyRpH8n6-8" value="i = 0" style="rounded=1;whiteSpace=wrap;html=1;arcSize=40;fontColor=#000000;fillColor=#ffffc0;strokeColor=#ff0000;" vertex="1" parent="WIyWlLk6GJQsqaUBKTNV-1">
          <mxGeometry x="285" y="310" width="120" height="40" as="geometry" />
        </mxCell>
        <mxCell id="pcavZEgPWF_feyRpH8n6-14" value="" style="ellipse;html=1;shape=endState;fillColor=#000000;strokeColor=#ff0000;" vertex="1" parent="WIyWlLk6GJQsqaUBKTNV-1">
          <mxGeometry x="465" y="405" width="30" height="30" as="geometry" />
        </mxCell>
        <mxCell id="pcavZEgPWF_feyRpH8n6-15" value="i++" style="rounded=1;whiteSpace=wrap;html=1;arcSize=40;fontColor=#000000;fillColor=#ffffc0;strokeColor=#ff0000;" vertex="1" parent="WIyWlLk6GJQsqaUBKTNV-1">
          <mxGeometry x="285" y="500" width="120" height="40" as="geometry" />
        </mxCell>
        <mxCell id="pcavZEgPWF_feyRpH8n6-16" value="" style="edgeStyle=orthogonalEdgeStyle;html=1;verticalAlign=bottom;endArrow=open;endSize=8;strokeColor=#ff0000;rounded=0;" edge="1" source="pcavZEgPWF_feyRpH8n6-15" parent="WIyWlLk6GJQsqaUBKTNV-1">
          <mxGeometry relative="1" as="geometry">
            <mxPoint x="345" y="600" as="targetPoint" />
          </mxGeometry>
        </mxCell>
        <mxCell id="pcavZEgPWF_feyRpH8n6-18" value="yes" style="text;html=1;align=center;verticalAlign=middle;resizable=0;points=[];autosize=1;strokeColor=none;fillColor=none;" vertex="1" parent="WIyWlLk6GJQsqaUBKTNV-1">
          <mxGeometry x="310" y="440" width="40" height="30" as="geometry" />
        </mxCell>
        <mxCell id="pcavZEgPWF_feyRpH8n6-19" value="Incorement" style="rounded=1;whiteSpace=wrap;html=1;arcSize=40;fontColor=#000000;fillColor=#ffffc0;strokeColor=#ff0000;" vertex="1" parent="WIyWlLk6GJQsqaUBKTNV-1">
          <mxGeometry x="285" y="600" width="120" height="40" as="geometry" />
        </mxCell>
        <mxCell id="pcavZEgPWF_feyRpH8n6-20" value="" style="edgeStyle=orthogonalEdgeStyle;html=1;verticalAlign=bottom;endArrow=open;endSize=8;strokeColor=#ff0000;rounded=0;entryX=0;entryY=0.5;entryDx=0;entryDy=0;" edge="1" source="pcavZEgPWF_feyRpH8n6-19" parent="WIyWlLk6GJQsqaUBKTNV-1" target="pcavZEgPWF_feyRpH8n6-5">
          <mxGeometry relative="1" as="geometry">
            <mxPoint x="345" y="700" as="targetPoint" />
            <Array as="points">
              <mxPoint x="258" y="620" />
              <mxPoint x="258" y="420" />
            </Array>
          </mxGeometry>
        </mxCell>
      </root>
    </mxGraphModel>
  </diagram>
</mxfile>
